<svg xmlns:xlink="http://www.w3.org/1999/xlink" data-name="Layer 1" xmlns="http://www.w3.org/2000/svg" viewBox="0 0 100 100" width="100"  height="100" ><defs><style>.cls-1{fill:#F6C53C;}.cls-2{fill:#282828;}</style></defs><title>Icons-Pawsitive</title><polygon class="cls-1" points="36.09 35.34 64.66 63.91 69.67 58.91 66.91 56.14 41.1 30.34 36.09 35.34" fill="#82C55B"></polygon><path class="cls-2" d="M48.34,81.47a3.13,3.13,0,0,1-2.22-5.35l3.33-3.33a3.13,3.13,0,0,1,4.43,4.43l-3.33,3.33A3.11,3.11,0,0,1,48.34,81.47Z" fill="#191919"></path><path class="cls-2" d="M21.67,54.8a3.13,3.13,0,0,1-2.22-5.35l3.33-3.33a3.13,3.13,0,1,1,4.43,4.43l-3.33,3.33A3.11,3.11,0,0,1,21.67,54.8Z" fill="#191919"></path><path class="cls-2" d="M30,64.8a3.11,3.11,0,0,1-2.22-.92,3.14,3.14,0,0,1,0-4.43l3.33-3.33a3.13,3.13,0,1,1,4.43,4.43l-3.33,3.33A3.11,3.11,0,0,1,30,64.8Z" fill="#191919"></path><path class="cls-2" d="M38.34,73.13a3.13,3.13,0,0,1-2.21-5.35l3.33-3.33a3.13,3.13,0,1,1,4.43,4.43l-3.33,3.33A3.1,3.1,0,0,1,38.34,73.13Z" fill="#191919"></path><path class="cls-2" d="M31.67,89.8a3.13,3.13,0,0,1-2.22-5.35l3.33-3.33a3.13,3.13,0,1,1,4.43,4.43l-3.33,3.33A3.11,3.11,0,0,1,31.67,89.8Z" fill="#191919"></path><path class="cls-2" d="M13.33,73.13a3.13,3.13,0,0,1-2.22-5.35l3.33-3.33a3.13,3.13,0,1,1,4.43,4.43l-3.33,3.33A3.1,3.1,0,0,1,13.33,73.13Z" fill="#191919"></path><path class="cls-2" d="M21.67,81.47a3.13,3.13,0,0,1-2.22-5.35l3.33-3.33a3.13,3.13,0,1,1,4.43,4.43l-3.33,3.33A3.1,3.1,0,0,1,21.67,81.47Z" fill="#191919"></path><path class="cls-2" d="M64.67,70.08a6.46,6.46,0,0,1-4.57-1.87L31.8,39.91a6.5,6.5,0,0,1,0-9.15L36.52,26a6.47,6.47,0,0,1,9.15,0l.14.14.17-.11a19.62,19.62,0,0,1,19.14-5.2l.11,0,8.33-8.33a8.14,8.14,0,0,1,11.5,0l2.37,2.37a8.14,8.14,0,0,1,0,11.5L79.1,34.77l0,.11A19.8,19.8,0,0,1,79.81,40a19.58,19.58,0,0,1-5.88,14l-.14.14.14.14a6.47,6.47,0,0,1,0,9.18L69.24,68.2A6.4,6.4,0,0,1,64.67,70.08ZM36.09,35.34,64.66,63.91l5-5-2.76-2.76L41.1,30.33ZM60,26.46a13.37,13.37,0,0,0-9.6,4l-.14.14L69.36,49.73l.14-.14a13.38,13.38,0,0,0,4-9.6,13.23,13.23,0,0,0-.93-4.92A13.52,13.52,0,0,0,65,27.4,13.35,13.35,0,0,0,60,26.46Zm19.3-10A1.85,1.85,0,0,0,78,17l-6.72,6.72.19.14a19.79,19.79,0,0,1,4.67,4.67l.14.19L83,22a1.87,1.87,0,0,0,0-2.64L80.62,17A1.86,1.86,0,0,0,79.3,16.46Z" fill="#191919"></path></svg>