<?xml version="1.0" standalone="no"?>
<!DOCTYPE svg PUBLIC "-//W3C//DTD SVG 20010904//EN"
 "http://www.w3.org/TR/2001/REC-SVG-20010904/DTD/svg10.dtd">
<svg version="1.0" xmlns="http://www.w3.org/2000/svg"
 width="408.000000pt" height="612.000000pt" viewBox="0 0 408.000000 612.000000"
 preserveAspectRatio="xMidYMid meet">

<g transform="translate(0.000000,612.000000) scale(0.100000,-0.100000)"
fill="#000000" stroke="none">
<path d="M0 5938 l0 -183 31 55 c17 30 51 90 75 133 25 42 53 100 64 127 l20
50 -95 0 -95 0 0 -182z"/>
<path d="M306 6078 c55 -58 84 -98 84 -116 0 -10 -7 -6 -20 11 -11 14 -20 28
-20 31 0 10 -86 96 -96 96 -6 0 -30 -42 -54 -92 -23 -51 -64 -124 -90 -163
-25 -38 -49 -78 -53 -87 -4 -11 -17 -18 -32 -18 l-25 0 0 -97 0 -98 53 -42
c141 -115 286 -89 372 65 33 58 50 123 66 247 14 106 25 100 28 -15 1 -42 4
-52 12 -40 9 12 9 11 4 -5 -5 -11 -10 -33 -12 -50 -19 -142 -109 -272 -210
-301 -37 -11 -72 -14 -107 -10 -55 7 -153 56 -163 82 -3 8 -14 19 -24 25 -18
9 -19 -3 -19 -451 l0 -460 41 0 c86 0 343 127 477 237 45 36 61 43 98 43 67 0
290 38 374 64 86 27 239 51 267 42 25 -8 124 26 137 46 6 11 5 26 -4 48 -13
31 -14 31 -69 26 -218 -22 -308 -25 -378 -15 -23 4 -78 73 -92 116 -11 33 -11
50 -2 85 65 235 71 270 71 387 0 64 -4 122 -9 130 -5 7 -20 14 -35 14 -14 0
-24 2 -22 6 3 4 -11 22 -30 40 -19 19 -34 37 -34 42 0 4 -9 10 -19 14 -11 3
-23 14 -26 24 -3 10 -17 24 -31 32 -14 7 -32 26 -41 42 -8 16 -17 27 -20 24
-6 -7 -53 33 -53 45 0 5 4 7 9 4 5 -4 7 2 4 13 -4 15 -15 19 -69 20 -35 1 -64
-2 -64 -5 0 -4 9 -38 21 -76 11 -39 18 -72 16 -75 -3 -2 -8 6 -12 19 -4 13
-19 49 -33 81 l-25 57 -91 0 -90 0 40 -42z m225 -213 c-3 -5 -8 6 -12 25 -3
19 -3 40 0 45 3 6 8 -6 12 -25 3 -19 3 -39 0 -45z m-227 -5 c5 0 20 12 33 26
24 26 25 26 42 8 10 -11 16 -25 13 -32 -2 -7 -7 -11 -9 -8 -3 3 -12 -1 -20 -9
-19 -19 -57 -19 -73 0 -7 8 -16 12 -21 9 -5 -3 -9 2 -9 10 0 9 -9 21 -20 28
-11 7 -20 19 -20 27 0 9 15 1 38 -22 21 -20 42 -37 46 -37z m583 -82 c-3 -8
-6 -5 -6 6 -1 11 2 17 5 13 3 -3 4 -12 1 -19z m-60 -10 c-3 -8 -6 -5 -6 6 -1
11 2 17 5 13 3 -3 4 -12 1 -19z"/>
<path d="M1709 4232 c-12 -11 -24 -27 -25 -37 -2 -13 0 -15 9 -6 17 17 26 13
24 -9 -1 -13 -6 -19 -15 -15 -7 3 -23 5 -33 5 -12 0 -17 4 -13 11 4 7 -2 9
-17 7 -13 -1 -28 -13 -34 -25 -5 -13 -13 -23 -17 -23 -3 0 5 -20 19 -45 13
-25 20 -45 15 -45 -6 0 -12 -8 -14 -17 -2 -11 -12 -2 -32 30 -16 25 -33 44
-38 41 -16 -10 -30 7 -17 22 9 11 8 14 -4 14 -9 0 -19 -5 -23 -11 -3 -6 -9 -7
-13 -2 -10 14 -60 33 -89 33 -15 0 -39 -6 -54 -14 -20 -11 -28 -11 -32 -3 -2
7 -5 2 -5 -11 -1 -30 21 -37 52 -17 23 15 28 15 65 -2 36 -15 67 -56 39 -50
-23 4 -81 -140 -79 -196 2 -36 36 -157 62 -222 5 -11 18 -51 31 -90 12 -38 25
-74 29 -78 4 -5 15 13 24 39 18 54 20 78 6 69 -5 -3 -10 -2 -10 4 0 5 -3 18
-6 28 -5 15 -4 15 5 3 8 -11 11 -11 12 -2 1 6 3 17 4 22 1 6 3 15 4 21 2 20
20 -2 27 -34 6 -28 8 -29 15 -12 5 14 8 7 8 -27 1 -38 -2 -46 -14 -42 -8 4
-16 14 -16 23 -2 19 -17 -64 -18 -97 -1 -13 3 -21 8 -18 5 3 26 -8 46 -24 44
-35 50 -36 60 -12 6 16 7 16 17 -1 5 -10 14 -31 18 -47 6 -22 5 -28 -5 -24 -7
3 -16 12 -19 20 -10 25 -24 15 -32 -23 -4 -21 -7 -41 -6 -45 1 -5 -3 -8 -9 -8
-6 0 -9 7 -5 15 3 8 1 15 -3 15 -5 0 -18 17 -28 38 -19 38 -63 62 -49 26 18
-43 56 -212 56 -245 0 -20 -6 -49 -14 -65 -78 -160 -87 -209 -93 -469 -3 -121
-9 -227 -14 -236 -5 -9 -11 -35 -14 -58 -3 -22 -8 -60 -11 -83 -10 -68 -7
-139 11 -250 14 -85 15 -108 4 -133 -7 -16 -11 -34 -10 -39 1 -4 -3 -14 -9
-21 -23 -28 -33 -86 -35 -219 -4 -163 -9 -205 -36 -281 -12 -35 -22 -97 -26
-164 -5 -93 -3 -118 16 -179 11 -38 21 -87 21 -109 0 -21 9 -92 20 -158 21
-131 28 -405 11 -492 -5 -26 -12 -78 -15 -115 l-5 -68 239 0 240 0 0 40 c0 39
11 67 39 102 11 14 12 38 7 108 -7 90 5 170 24 170 6 0 41 -20 78 -44 66 -42
199 -106 221 -106 12 0 15 -12 31 -115 6 -38 16 -89 22 -112 l12 -43 161 0
160 0 -3 90 c-2 49 -2 90 2 90 15 0 118 -23 164 -37 30 -8 71 -13 92 -10 21 3
43 0 49 -6 6 -6 11 -37 11 -69 l0 -58 570 0 570 0 -2 707 -3 706 -85 58 c-46
32 -121 72 -165 89 -76 30 -145 65 -280 142 -33 19 -139 74 -235 122 -96 49
-202 110 -235 136 -33 26 -92 64 -131 83 -56 28 -78 46 -100 80 -18 30 -50 58
-96 87 -70 43 -71 45 -83 128 -3 24 -18 69 -34 100 -15 31 -31 83 -35 114 -7
61 -43 183 -70 233 -22 41 -20 68 10 198 35 149 30 219 -26 382 -71 205 -101
259 -187 343 -74 71 -78 74 -120 70 -23 -2 -43 0 -43 4 0 4 -17 12 -37 17 -37
11 -97 67 -109 103 -3 10 -10 18 -16 18 -6 0 -9 3 -6 6 9 8 -50 130 -96 199
-55 84 -77 106 -96 100 -10 -3 -23 1 -30 10 -16 20 -33 19 -61 -3z m131 -132
c0 -5 -2 -10 -4 -10 -3 0 -8 5 -11 10 -3 6 -1 10 4 10 6 0 11 -4 11 -10z
m-330 -155 c0 -5 -5 -3 -10 5 -5 8 -10 20 -10 25 0 6 5 3 10 -5 5 -8 10 -19
10 -25z m30 -36 c0 -6 -4 -7 -10 -4 -5 3 -10 11 -10 16 0 6 5 7 10 4 6 -3 10
-11 10 -16z m6 -125 c-3 -8 -1 -14 4 -14 6 0 10 -5 10 -11 0 -5 -4 -8 -9 -4
-5 3 -12 -3 -14 -12 -3 -10 -5 1 -6 25 -1 28 3 41 10 37 6 -4 8 -13 5 -21z
m577 -24 c3 -11 1 -20 -4 -20 -5 0 -9 2 -9 4 0 2 -3 11 -6 20 -3 9 -2 16 4 16
5 0 12 -9 15 -20z m-593 -61 c0 -5 -4 -9 -10 -9 -5 0 -10 7 -10 16 0 8 5 12
10 9 6 -3 10 -10 10 -16z m680 -3 c0 -11 -19 -15 -25 -6 -3 5 1 10 9 10 9 0
16 -2 16 -4z m-140 -46 c0 -5 -7 -7 -15 -4 -8 4 -15 8 -15 10 0 2 7 4 15 4 8
0 15 -4 15 -10z m100 -10 c0 -11 -4 -20 -9 -20 -11 0 -22 26 -14 34 12 12 23
5 23 -14z m50 -1 c0 -11 -4 -18 -10 -14 -5 3 -7 12 -3 20 7 21 13 19 13 -6z
m-60 -54 c0 -8 -2 -15 -4 -15 -2 0 -6 7 -10 15 -3 8 -1 15 4 15 6 0 10 -7 10
-15z m-470 -104 c0 -6 -4 -13 -10 -16 -5 -3 -10 1 -10 9 0 9 5 16 10 16 6 0
10 -4 10 -9z m355 -621 c5 -17 4 -22 -3 -15 -5 6 -13 21 -17 35 -5 17 -4 22 3
15 5 -5 13 -21 17 -35z m-503 -134 c-3 -5 -9 -1 -12 10 -4 10 -5 23 -2 28 3 5
9 1 12 -10 4 -10 5 -23 2 -28z m38 -22 c0 -14 -4 -22 -10 -19 -5 3 -10 17 -10
31 0 14 4 22 10 19 6 -3 10 -17 10 -31z m30 -24 c0 -11 -2 -20 -4 -20 -2 0 -6
9 -9 20 -3 11 -1 20 4 20 5 0 9 -9 9 -20z m0 -120 c0 -11 -2 -20 -4 -20 -2 0
-6 9 -9 20 -3 11 -1 20 4 20 5 0 9 -9 9 -20z m-50 -56 c0 -13 -4 -24 -10 -24
-5 0 -10 14 -10 31 0 17 4 28 10 24 6 -3 10 -17 10 -31z m52 -6 c-9 -9 -12 -7
-12 12 0 19 3 21 12 12 9 -9 9 -15 0 -24z m167 -139 c-7 -4 -16 -5 -19 -2 -3
3 0 8 7 10 7 2 10 12 7 21 -4 13 -3 13 6 -2 10 -14 10 -20 -1 -27z m111 5 c0
-8 -4 -12 -10 -9 -5 3 -10 10 -10 16 0 5 5 9 10 9 6 0 10 -7 10 -16z m-214
-70 c-4 -9 -9 -15 -11 -12 -3 3 -3 13 1 22 4 9 9 15 11 12 3 -3 3 -13 -1 -22z
m-146 -174 c0 -5 -5 -10 -11 -10 -5 0 -7 5 -4 10 3 6 8 10 11 10 2 0 4 -4 4
-10z m24 -205 c-4 -8 -13 -15 -22 -15 -13 0 -12 3 4 15 24 18 25 18 18 0z
m-123 -212 c-8 -15 -10 -15 -11 -2 0 17 10 32 18 25 2 -3 -1 -13 -7 -23z m-9
-98 c-2 -14 -6 -25 -8 -25 -2 0 -4 11 -4 25 0 14 4 25 9 25 4 0 6 -11 3 -25z
m948 -149 c0 -3 -4 -8 -10 -11 -5 -3 -10 -1 -10 4 0 6 5 11 10 11 6 0 10 -2
10 -4z m-933 -283 c-3 -10 -5 -4 -5 12 0 17 2 24 5 18 2 -7 2 -21 0 -30z m6
-53 c-3 -11 -7 -20 -9 -20 -2 0 -4 9 -4 20 0 11 4 20 9 20 5 0 7 -9 4 -20z"/>
<path d="M2132 3818 c6 -18 48 -30 48 -14 0 8 -7 17 -16 20 -24 9 -36 7 -32
-6z"/>
</g>
</svg>
